<?xml version="1.0" encoding="UTF-8" standalone="no"?>
<!DOCTYPE svg PUBLIC "-//W3C//DTD SVG 1.1//EN"
 "http://www.w3.org/Graphics/SVG/1.1/DTD/svg11.dtd">
<!-- Generated by graphviz version 2.45.2020????.???? (2020????.????)
 -->
<!-- Title: G Pages: 1 -->
<svg width="1068pt" height="790pt"
 viewBox="0.00 0.00 1068.27 789.67" xmlns="http://www.w3.org/2000/svg" xmlns:xlink="http://www.w3.org/1999/xlink">
<g id="graph0" class="graph" transform="scale(1 1) rotate(0) translate(4 785.67)">
<title>G</title>
<polygon fill="white" stroke="transparent" points="-4,4 -4,-785.67 1064.27,-785.67 1064.27,4 -4,4"/>
<text text-anchor="middle" x="530.14" y="-37.8" font-family="Times New Roman,serif" font-size="14.00">Programación Binaria </text>
<text text-anchor="middle" x="530.14" y="-22.8" font-family="Times New Roman,serif" font-size="14.00"> Z* = 1026.0</text>
<text text-anchor="middle" x="530.14" y="-7.8" font-family="Times New Roman,serif" font-size="14.00">X = [1. 1. 0. 0.]</text>
<!-- 0 -->
<g id="node1" class="node">
<title>0</title>
<ellipse fill="none" stroke="black" cx="403.19" cy="-669.24" rx="212.26" ry="112.36"/>
<text text-anchor="middle" x="403.19" y="-733.54" font-family="Times New Roman,serif" font-size="14.00">MAX Z = 651.0x1 + 375.0x2 + 264.0x3 + 327.0x4</text>
<text text-anchor="middle" x="403.19" y="-718.54" font-family="Times New Roman,serif" font-size="14.00">s.a.</text>
<text text-anchor="middle" x="403.19" y="-703.54" font-family="Times New Roman,serif" font-size="14.00">116.0x1 + 88.0x2 + 72.0x3 + 46.0x4 ≤ 240.0</text>
<text text-anchor="middle" x="403.19" y="-688.54" font-family="Times New Roman,serif" font-size="14.00">50.0x1 + 58.0x2 + 26.0x3 + 34.0x4 ≤ 160.0</text>
<text text-anchor="middle" x="403.19" y="-673.54" font-family="Times New Roman,serif" font-size="14.00">96.0x1 + 50.0x2 + 46.0x3 + 58.0x4 ≤ 190.0</text>
<text text-anchor="middle" x="403.19" y="-658.54" font-family="Times New Roman,serif" font-size="14.00">xi ≤ 1</text>
<text text-anchor="middle" x="403.19" y="-643.54" font-family="Times New Roman,serif" font-size="14.00"> xi ≥ 0</text>
<text text-anchor="middle" x="403.19" y="-612.54" font-family="Times New Roman,serif" font-size="14.00"> Z=1274.2135922330096</text>
<text text-anchor="middle" x="403.19" y="-597.54" font-family="Times New Roman,serif" font-size="14.00"> X=[1. &#160;&#160;&#160;&#160;&#160;&#160;&#160;&#160;1. &#160;&#160;&#160;&#160;&#160;&#160;&#160;&#160;0.03106796 0.73398058]</text>
</g>
<!-- 1 -->
<g id="node2" class="node">
<title>1</title>
<ellipse fill="none" stroke="black" cx="309.19" cy="-468.34" rx="108.38" ry="37.45"/>
<text text-anchor="middle" x="309.19" y="-479.64" font-family="Times New Roman,serif" font-size="14.00">Solucion Factible Entera</text>
<text text-anchor="middle" x="309.19" y="-464.64" font-family="Times New Roman,serif" font-size="14.00"> Z=966.0</text>
<text text-anchor="middle" x="309.19" y="-449.64" font-family="Times New Roman,serif" font-size="14.00"> X=[0. 1. 1. 1.]</text>
</g>
<!-- 0&#45;&gt;1 -->
<g id="edge1" class="edge">
<title>0&#45;&gt;1</title>
<path fill="none" stroke="black" d="M352.06,-560.06C344.5,-544.07 337.09,-528.38 330.61,-514.67"/>
<polygon fill="black" stroke="black" points="333.72,-513.05 326.28,-505.51 327.39,-516.05 333.72,-513.05"/>
<text text-anchor="middle" x="358.69" y="-527.61" font-family="Times New Roman,serif" font-size="14.00">x1 = 0</text>
</g>
<!-- 2 -->
<g id="node3" class="node">
<title>2</title>
<ellipse fill="none" stroke="black" cx="625.19" cy="-468.34" rx="190.42" ry="37.45"/>
<text text-anchor="middle" x="625.19" y="-479.64" font-family="Times New Roman,serif" font-size="14.00">Solucion Factible No Entera</text>
<text text-anchor="middle" x="625.19" y="-464.64" font-family="Times New Roman,serif" font-size="14.00"> Z=1274.2135922330096</text>
<text text-anchor="middle" x="625.19" y="-449.64" font-family="Times New Roman,serif" font-size="14.00"> X=[1. &#160;&#160;&#160;&#160;&#160;&#160;&#160;&#160;1. &#160;&#160;&#160;&#160;&#160;&#160;&#160;&#160;0.03106796 0.73398058]</text>
</g>
<!-- 0&#45;&gt;2 -->
<g id="edge2" class="edge">
<title>0&#45;&gt;2</title>
<path fill="none" stroke="black" d="M510.61,-571.99C534.16,-550.9 557.92,-529.61 577.65,-511.93"/>
<polygon fill="black" stroke="black" points="580.18,-514.37 585.29,-505.09 575.5,-509.15 580.18,-514.37"/>
<text text-anchor="middle" x="578.69" y="-527.61" font-family="Times New Roman,serif" font-size="14.00">x1 = 1</text>
</g>
<!-- 3 -->
<g id="node4" class="node">
<title>3</title>
<ellipse fill="none" stroke="black" cx="395.19" cy="-342.38" rx="173.48" ry="37.45"/>
<text text-anchor="middle" x="395.19" y="-353.68" font-family="Times New Roman,serif" font-size="14.00">Solucion Factible No Entera</text>
<text text-anchor="middle" x="395.19" y="-338.68" font-family="Times New Roman,serif" font-size="14.00"> Z=1185.6206896551723</text>
<text text-anchor="middle" x="395.19" y="-323.68" font-family="Times New Roman,serif" font-size="14.00"> X=[1. &#160;&#160;&#160;&#160;&#160;&#160;&#160;&#160;0. &#160;&#160;&#160;&#160;&#160;&#160;&#160;&#160;1. &#160;&#160;&#160;&#160;&#160;&#160;&#160;&#160;0.82758621]</text>
</g>
<!-- 2&#45;&gt;3 -->
<g id="edge3" class="edge">
<title>2&#45;&gt;3</title>
<path fill="none" stroke="black" d="M561.42,-432.97C532.27,-417.26 497.59,-398.57 467.47,-382.34"/>
<polygon fill="black" stroke="black" points="468.74,-379.05 458.28,-377.38 465.42,-385.21 468.74,-379.05"/>
<text text-anchor="middle" x="542.69" y="-401.66" font-family="Times New Roman,serif" font-size="14.00">x2 = 0</text>
</g>
<!-- 4 -->
<g id="node5" class="node">
<title>4</title>
<ellipse fill="none" stroke="black" cx="776.19" cy="-342.38" rx="190.42" ry="37.45"/>
<text text-anchor="middle" x="776.19" y="-353.68" font-family="Times New Roman,serif" font-size="14.00">Solucion Factible No Entera</text>
<text text-anchor="middle" x="776.19" y="-338.68" font-family="Times New Roman,serif" font-size="14.00"> Z=1274.2135922330096</text>
<text text-anchor="middle" x="776.19" y="-323.68" font-family="Times New Roman,serif" font-size="14.00"> X=[1. &#160;&#160;&#160;&#160;&#160;&#160;&#160;&#160;1. &#160;&#160;&#160;&#160;&#160;&#160;&#160;&#160;0.03106796 0.73398058]</text>
</g>
<!-- 2&#45;&gt;4 -->
<g id="edge4" class="edge">
<title>2&#45;&gt;4</title>
<path fill="none" stroke="black" d="M668.46,-431.82C686.15,-417.29 706.75,-400.39 725.17,-385.27"/>
<polygon fill="black" stroke="black" points="727.4,-387.96 732.91,-378.91 722.96,-382.55 727.4,-387.96"/>
<text text-anchor="middle" x="728.69" y="-401.66" font-family="Times New Roman,serif" font-size="14.00">x2 = 1</text>
</g>
<!-- 5 -->
<g id="node6" class="node">
<title>5</title>
<ellipse fill="none" stroke="black" cx="108.19" cy="-216.43" rx="108.38" ry="37.45"/>
<text text-anchor="middle" x="108.19" y="-227.73" font-family="Times New Roman,serif" font-size="14.00">Solucion Factible Entera</text>
<text text-anchor="middle" x="108.19" y="-212.73" font-family="Times New Roman,serif" font-size="14.00"> Z=978.0</text>
<text text-anchor="middle" x="108.19" y="-197.73" font-family="Times New Roman,serif" font-size="14.00"> X=[1. 0. 0. 1.]</text>
</g>
<!-- 3&#45;&gt;5 -->
<g id="edge5" class="edge">
<title>3&#45;&gt;5</title>
<path fill="none" stroke="black" d="M319.41,-308.65C277.56,-290.58 225.76,-268.21 183.92,-250.14"/>
<polygon fill="black" stroke="black" points="185.18,-246.87 174.61,-246.12 182.4,-253.3 185.18,-246.87"/>
<text text-anchor="middle" x="287.69" y="-275.71" font-family="Times New Roman,serif" font-size="14.00">x3 = 0</text>
</g>
<!-- 6 -->
<g id="node7" class="node">
<title>6</title>
<ellipse fill="none" stroke="black" cx="407.19" cy="-216.43" rx="173.48" ry="37.45"/>
<text text-anchor="middle" x="407.19" y="-227.73" font-family="Times New Roman,serif" font-size="14.00">Solucion Factible No Entera</text>
<text text-anchor="middle" x="407.19" y="-212.73" font-family="Times New Roman,serif" font-size="14.00"> Z=1185.6206896551723</text>
<text text-anchor="middle" x="407.19" y="-197.73" font-family="Times New Roman,serif" font-size="14.00"> X=[1. &#160;&#160;&#160;&#160;&#160;&#160;&#160;&#160;0. &#160;&#160;&#160;&#160;&#160;&#160;&#160;&#160;1. &#160;&#160;&#160;&#160;&#160;&#160;&#160;&#160;0.82758621]</text>
</g>
<!-- 3&#45;&gt;6 -->
<g id="edge6" class="edge">
<title>3&#45;&gt;6</title>
<path fill="none" stroke="black" d="M398.72,-304.86C399.96,-292.12 401.36,-277.63 402.66,-264.17"/>
<polygon fill="black" stroke="black" points="406.16,-264.41 403.64,-254.12 399.19,-263.73 406.16,-264.41"/>
<text text-anchor="middle" x="420.69" y="-275.71" font-family="Times New Roman,serif" font-size="14.00">x3 = 1</text>
</g>
<!-- 7 -->
<g id="node8" class="node">
<title>7</title>
<ellipse fill="none" stroke="black" cx="773.19" cy="-216.43" rx="173.48" ry="37.45"/>
<text text-anchor="middle" x="773.19" y="-227.73" font-family="Times New Roman,serif" font-size="14.00">Solucion Factible No Entera</text>
<text text-anchor="middle" x="773.19" y="-212.73" font-family="Times New Roman,serif" font-size="14.00"> Z=1274.0689655172414</text>
<text text-anchor="middle" x="773.19" y="-197.73" font-family="Times New Roman,serif" font-size="14.00"> X=[1. &#160;&#160;&#160;&#160;&#160;&#160;&#160;&#160;1. &#160;&#160;&#160;&#160;&#160;&#160;&#160;&#160;0. &#160;&#160;&#160;&#160;&#160;&#160;&#160;&#160;0.75862069]</text>
</g>
<!-- 4&#45;&gt;7 -->
<g id="edge7" class="edge">
<title>4&#45;&gt;7</title>
<path fill="none" stroke="black" d="M775.3,-304.86C774.99,-292.12 774.64,-277.63 774.32,-264.17"/>
<polygon fill="black" stroke="black" points="777.82,-264.03 774.08,-254.12 770.82,-264.2 777.82,-264.03"/>
<text text-anchor="middle" x="793.69" y="-275.71" font-family="Times New Roman,serif" font-size="14.00">x3 = 0</text>
</g>
<!-- 8 -->
<g id="node9" class="node">
<title>8</title>
<ellipse fill="none" stroke="black" cx="1012.19" cy="-216.43" rx="48.17" ry="27.65"/>
<text text-anchor="middle" x="1012.19" y="-220.73" font-family="Times New Roman,serif" font-size="14.00">Infactible</text>
</g>
<!-- 4&#45;&gt;8 -->
<g id="edge8" class="edge">
<title>4&#45;&gt;8</title>
<path fill="none" stroke="black" d="M849.89,-307.71C882.59,-292.17 921.26,-272.97 955.19,-253.91 961.04,-250.62 967.11,-246.98 973.02,-243.32"/>
<polygon fill="black" stroke="black" points="974.93,-246.26 981.52,-237.97 971.19,-240.34 974.93,-246.26"/>
<text text-anchor="middle" x="940.69" y="-275.71" font-family="Times New Roman,serif" font-size="14.00">x3 = 1</text>
</g>
<!-- 9 -->
<g id="node10" class="node">
<title>9</title>
<ellipse fill="none" stroke="black" cx="242.19" cy="-90.48" rx="108.38" ry="37.45"/>
<text text-anchor="middle" x="242.19" y="-101.78" font-family="Times New Roman,serif" font-size="14.00">Solucion Factible Entera</text>
<text text-anchor="middle" x="242.19" y="-86.78" font-family="Times New Roman,serif" font-size="14.00"> Z=915.0</text>
<text text-anchor="middle" x="242.19" y="-71.78" font-family="Times New Roman,serif" font-size="14.00"> X=[1. 0. 1. 0.]</text>
</g>
<!-- 6&#45;&gt;9 -->
<g id="edge9" class="edge">
<title>6&#45;&gt;9</title>
<path fill="none" stroke="black" d="M360.35,-180.24C339.91,-164.89 315.85,-146.82 294.8,-131"/>
<polygon fill="black" stroke="black" points="296.69,-128.04 286.59,-124.83 292.48,-133.64 296.69,-128.04"/>
<text text-anchor="middle" x="353.69" y="-149.75" font-family="Times New Roman,serif" font-size="14.00">x4 = 0</text>
</g>
<!-- 10 -->
<g id="node11" class="node">
<title>10</title>
<ellipse fill="none" stroke="black" cx="416.19" cy="-90.48" rx="48.17" ry="27.65"/>
<text text-anchor="middle" x="416.19" y="-94.78" font-family="Times New Roman,serif" font-size="14.00">Infactible</text>
</g>
<!-- 6&#45;&gt;10 -->
<g id="edge10" class="edge">
<title>6&#45;&gt;10</title>
<path fill="none" stroke="black" d="M409.84,-178.91C411,-162.98 412.35,-144.33 413.51,-128.35"/>
<polygon fill="black" stroke="black" points="417.01,-128.52 414.24,-118.3 410.02,-128.02 417.01,-128.52"/>
<text text-anchor="middle" x="431.69" y="-149.75" font-family="Times New Roman,serif" font-size="14.00">x4 = 1</text>
</g>
<!-- 11 -->
<g id="node12" class="node">
<title>11</title>
<ellipse fill="none" stroke="black" cx="686.19" cy="-90.48" rx="108.38" ry="37.45"/>
<text text-anchor="middle" x="686.19" y="-101.78" font-family="Times New Roman,serif" font-size="14.00">Solucion Factible Entera</text>
<text text-anchor="middle" x="686.19" y="-86.78" font-family="Times New Roman,serif" font-size="14.00"> Z=1026.0</text>
<text text-anchor="middle" x="686.19" y="-71.78" font-family="Times New Roman,serif" font-size="14.00"> X=[1. 1. 0. 0.]</text>
</g>
<!-- 7&#45;&gt;11 -->
<g id="edge11" class="edge">
<title>7&#45;&gt;11</title>
<path fill="none" stroke="black" d="M747.79,-179.24C738.15,-165.51 727.06,-149.71 716.97,-135.34"/>
<polygon fill="black" stroke="black" points="719.78,-133.24 711.17,-127.07 714.05,-137.26 719.78,-133.24"/>
<text text-anchor="middle" x="753.69" y="-149.75" font-family="Times New Roman,serif" font-size="14.00">x4 = 0</text>
</g>
<!-- 12 -->
<g id="node13" class="node">
<title>12</title>
<ellipse fill="none" stroke="black" cx="860.19" cy="-90.48" rx="48.17" ry="27.65"/>
<text text-anchor="middle" x="860.19" y="-94.78" font-family="Times New Roman,serif" font-size="14.00">Infactible</text>
</g>
<!-- 7&#45;&gt;12 -->
<g id="edge12" class="edge">
<title>7&#45;&gt;12</title>
<path fill="none" stroke="black" d="M798.59,-179.24C810.63,-162.08 824.93,-141.71 836.71,-124.92"/>
<polygon fill="black" stroke="black" points="839.74,-126.69 842.62,-116.5 834.02,-122.67 839.74,-126.69"/>
<text text-anchor="middle" x="840.69" y="-149.75" font-family="Times New Roman,serif" font-size="14.00">x4 = 1</text>
</g>
</g>
</svg>
